<svg width="30" height="30" viewBox="0 0 30 30" fill="none" xmlns="http://www.w3.org/2000/svg">
<path d="M15.875 5.875C16.1042 6.10417 16.2242 6.39583 16.235 6.75C16.245 7.10417 16.1354 7.39583 15.9063 7.625L9.78125 13.75L23.75 13.75C24.1042 13.75 24.4012 13.87 24.6412 14.11C24.8804 14.3492 25 14.6458 25 15C25 15.3542 24.8804 15.6513 24.6412 15.8913C24.4012 16.1304 24.1042 16.25 23.75 16.25H9.78125L15.9063 22.375C16.1354 22.6042 16.245 22.8958 16.235 23.25C16.2242 23.6042 16.1042 23.8958 15.875 24.125C15.6458 24.3542 15.3542 24.4688 15 24.4688C14.6458 24.4688 14.3542 24.3542 14.125 24.125L5.875 15.875C5.75 15.7708 5.66125 15.6408 5.60875 15.485C5.55709 15.3283 5.53125 15.1667 5.53125 15C5.53125 14.8333 5.55709 14.6771 5.60875 14.5313C5.66125 14.3854 5.75 14.25 5.875 14.125L14.125 5.875C14.3542 5.64583 14.6458 5.53125 15 5.53125C15.3542 5.53125 15.6458 5.64583 15.875 5.875Z" fill="#A9A9A9"/>
</svg>
